# xmcd
#
# Track frame offsets:
# 150
# 14393
# 32084
# 47918
# 62788
# 73969
# 92226
# 108912
# 125714
# 141413
# 154425
# 172060
# 185735
# 199583
#
# Disc length: 2904 seconds
#
#
# Revision: 0
# Processed by: cddbd v1.5.1PL2 Copyright (c) Steve Scherf et al.
# Submitted via: FreeRIP 2.942 
#
DISCID=db0b560e
DTITLE=Marlon e Maicon - 2006 ao vivo e acustico - marlon e maicon 
DYEAR=2006
DGENRE=Country
TTITLE0=tudo me lembra voçê
TTITLE1=deu saudade
TTITLE2=te dedico essa cancao
TTITLE3=eu sempre vou voltar
TTITLE4=bom demais
TTITLE5=por te amar assim
TTITLE6=ta na cara
TTITLE7=frisson
TTITLE8=coraçao aventureiro
TTITLE9=agora que eu mudei
TTITLE10=te peco fica comigo
TTITLE11=eu sou brasil
TTITLE12=nosso vicio e se divertir
TTITLE13=meu amigo jesus
EXTD=
EXTT0=
EXTT1=
EXTT2=
EXTT3=
EXTT4=
EXTT5=
EXTT6=
EXTT7=
EXTT8=
EXTT9=
EXTT10=
EXTT11=
EXTT12=
EXTT13=
PLAYORDER=
